<mxfile host="Electron" agent="Mozilla/5.0 (Windows NT 10.0; Win64; x64) AppleWebKit/537.36 (KHTML, like Gecko) draw.io/24.7.17 Chrome/128.0.6613.36 Electron/32.0.1 Safari/537.36" version="24.7.17">
  <diagram name="第 1 页" id="OkG9HMoJEpAxBcAFROYO">
    <mxGraphModel dx="1235" dy="740" grid="0" gridSize="10" guides="1" tooltips="1" connect="1" arrows="1" fold="1" page="0" pageScale="1" pageWidth="1169" pageHeight="827" math="0" shadow="0">
      <root>
        <mxCell id="0" />
        <mxCell id="1" parent="0" />
        <mxCell id="vQwIOBZvXGlRH5EmlvgB-14" value="" style="ellipse;whiteSpace=wrap;html=1;aspect=fixed;fontSize=24;strokeWidth=2;" vertex="1" parent="1">
          <mxGeometry x="240" y="155" width="590" height="590" as="geometry" />
        </mxCell>
        <mxCell id="vQwIOBZvXGlRH5EmlvgB-3" value="src/" style="ellipse;whiteSpace=wrap;html=1;aspect=fixed;fontSize=24;fontStyle=1;fillColor=#f8cecc;strokeColor=#b85450;" vertex="1" parent="1">
          <mxGeometry x="500" y="410" width="80" height="80" as="geometry" />
        </mxCell>
        <mxCell id="vQwIOBZvXGlRH5EmlvgB-4" value="api/" style="rounded=0;whiteSpace=wrap;html=1;fontSize=24;fontStyle=1;fillColor=#ffe6cc;strokeColor=#d79b00;" vertex="1" parent="1">
          <mxGeometry x="480" y="240" width="120" height="60" as="geometry" />
        </mxCell>
        <mxCell id="vQwIOBZvXGlRH5EmlvgB-5" value="stores/" style="rounded=0;whiteSpace=wrap;html=1;fontSize=24;fontStyle=1;fillColor=#ffe6cc;strokeColor=#d79b00;" vertex="1" parent="1">
          <mxGeometry x="310" y="310" width="120" height="60" as="geometry" />
        </mxCell>
        <mxCell id="vQwIOBZvXGlRH5EmlvgB-6" value="views/" style="rounded=0;whiteSpace=wrap;html=1;fontSize=24;fontStyle=1;fillColor=#ffe6cc;strokeColor=#d79b00;" vertex="1" parent="1">
          <mxGeometry x="250" y="400" width="120" height="60" as="geometry" />
        </mxCell>
        <mxCell id="vQwIOBZvXGlRH5EmlvgB-7" value="utils/" style="rounded=0;whiteSpace=wrap;html=1;fontSize=24;fontStyle=1;fillColor=#ffe6cc;strokeColor=#d79b00;" vertex="1" parent="1">
          <mxGeometry x="310" y="490" width="120" height="60" as="geometry" />
        </mxCell>
        <mxCell id="vQwIOBZvXGlRH5EmlvgB-8" value="assets/" style="rounded=0;whiteSpace=wrap;html=1;fontSize=24;fontStyle=1;fillColor=#ffe6cc;strokeColor=#d79b00;" vertex="1" parent="1">
          <mxGeometry x="640" y="310" width="120" height="60" as="geometry" />
        </mxCell>
        <mxCell id="vQwIOBZvXGlRH5EmlvgB-9" value="components/" style="rounded=0;whiteSpace=wrap;html=1;fontSize=24;fontStyle=1;fillColor=#ffe6cc;strokeColor=#d79b00;" vertex="1" parent="1">
          <mxGeometry x="670" y="400" width="150" height="60" as="geometry" />
        </mxCell>
        <mxCell id="vQwIOBZvXGlRH5EmlvgB-10" value="router/" style="rounded=0;whiteSpace=wrap;html=1;fontSize=24;fontStyle=1;fillColor=#ffe6cc;strokeColor=#d79b00;" vertex="1" parent="1">
          <mxGeometry x="650" y="490" width="120" height="60" as="geometry" />
        </mxCell>
        <mxCell id="vQwIOBZvXGlRH5EmlvgB-11" value="types/" style="rounded=0;whiteSpace=wrap;html=1;fontSize=24;fontStyle=1;fillColor=#ffe6cc;strokeColor=#d79b00;" vertex="1" parent="1">
          <mxGeometry x="370" y="590" width="120" height="60" as="geometry" />
        </mxCell>
        <mxCell id="vQwIOBZvXGlRH5EmlvgB-12" value="styles/" style="rounded=0;whiteSpace=wrap;html=1;fontSize=24;fontStyle=1;fillColor=#ffe6cc;strokeColor=#d79b00;" vertex="1" parent="1">
          <mxGeometry x="560" y="590" width="120" height="60" as="geometry" />
        </mxCell>
        <mxCell id="vQwIOBZvXGlRH5EmlvgB-15" value="" style="shape=curlyBracket;whiteSpace=wrap;html=1;rounded=1;flipH=1;labelPosition=right;verticalLabelPosition=middle;align=left;verticalAlign=middle;strokeWidth=3;" vertex="1" parent="1">
          <mxGeometry x="200" y="155" width="20" height="550" as="geometry" />
        </mxCell>
        <mxCell id="vQwIOBZvXGlRH5EmlvgB-16" value="about" style="rounded=0;whiteSpace=wrap;html=1;fontSize=18;fontStyle=1;fillColor=#fff2cc;strokeColor=#d6b656;" vertex="1" parent="1">
          <mxGeometry x="60" y="170" width="120" height="40" as="geometry" />
        </mxCell>
        <mxCell id="vQwIOBZvXGlRH5EmlvgB-27" value="archive" style="rounded=0;whiteSpace=wrap;html=1;fontSize=18;fontStyle=1;fillColor=#fff2cc;strokeColor=#d6b656;" vertex="1" parent="1">
          <mxGeometry x="60" y="230" width="120" height="40" as="geometry" />
        </mxCell>
        <mxCell id="vQwIOBZvXGlRH5EmlvgB-28" value="article" style="rounded=0;whiteSpace=wrap;html=1;fontSize=18;fontStyle=1;fillColor=#fff2cc;strokeColor=#d6b656;" vertex="1" parent="1">
          <mxGeometry x="60" y="290" width="120" height="40" as="geometry" />
        </mxCell>
        <mxCell id="vQwIOBZvXGlRH5EmlvgB-29" value="category" style="rounded=0;whiteSpace=wrap;html=1;fontSize=18;fontStyle=1;fillColor=#fff2cc;strokeColor=#d6b656;" vertex="1" parent="1">
          <mxGeometry x="60" y="350" width="120" height="40" as="geometry" />
        </mxCell>
        <mxCell id="vQwIOBZvXGlRH5EmlvgB-31" value="home" style="rounded=0;whiteSpace=wrap;html=1;fontSize=18;fontStyle=1;fillColor=#fff2cc;strokeColor=#d6b656;" vertex="1" parent="1">
          <mxGeometry x="60" y="410" width="120" height="40" as="geometry" />
        </mxCell>
        <mxCell id="vQwIOBZvXGlRH5EmlvgB-32" value="login" style="rounded=0;whiteSpace=wrap;html=1;fontSize=18;fontStyle=1;fillColor=#fff2cc;strokeColor=#d6b656;" vertex="1" parent="1">
          <mxGeometry x="60" y="470" width="120" height="40" as="geometry" />
        </mxCell>
        <mxCell id="vQwIOBZvXGlRH5EmlvgB-33" value="manage" style="rounded=0;whiteSpace=wrap;html=1;fontSize=18;fontStyle=1;fillColor=#fff2cc;strokeColor=#d6b656;" vertex="1" parent="1">
          <mxGeometry x="60" y="530" width="120" height="40" as="geometry" />
        </mxCell>
        <mxCell id="vQwIOBZvXGlRH5EmlvgB-34" value="register" style="rounded=0;whiteSpace=wrap;html=1;fontSize=18;fontStyle=1;fillColor=#fff2cc;strokeColor=#d6b656;" vertex="1" parent="1">
          <mxGeometry x="60" y="590" width="120" height="40" as="geometry" />
        </mxCell>
        <mxCell id="vQwIOBZvXGlRH5EmlvgB-35" value="tag" style="rounded=0;whiteSpace=wrap;html=1;fontSize=18;fontStyle=1;fillColor=#fff2cc;strokeColor=#d6b656;" vertex="1" parent="1">
          <mxGeometry x="60" y="650" width="120" height="40" as="geometry" />
        </mxCell>
        <mxCell id="vQwIOBZvXGlRH5EmlvgB-36" value="AdminCard" style="text;html=1;align=center;verticalAlign=middle;resizable=0;points=[];autosize=1;strokeColor=none;fillColor=none;fontSize=16;fontStyle=1" vertex="1" parent="1">
          <mxGeometry x="915" y="210" width="100" height="30" as="geometry" />
        </mxCell>
        <mxCell id="vQwIOBZvXGlRH5EmlvgB-37" value="AIChat" style="text;html=1;align=center;verticalAlign=middle;resizable=0;points=[];autosize=1;strokeColor=none;fillColor=none;fontSize=16;fontStyle=1" vertex="1" parent="1">
          <mxGeometry x="915" y="256.5" width="70" height="30" as="geometry" />
        </mxCell>
        <mxCell id="vQwIOBZvXGlRH5EmlvgB-38" value="ArticleCard" style="text;html=1;align=center;verticalAlign=middle;resizable=0;points=[];autosize=1;strokeColor=none;fillColor=none;fontSize=16;fontStyle=1" vertex="1" parent="1">
          <mxGeometry x="915" y="296.5" width="100" height="30" as="geometry" />
        </mxCell>
        <mxCell id="vQwIOBZvXGlRH5EmlvgB-39" value="CategoryCard" style="text;html=1;align=center;verticalAlign=middle;resizable=0;points=[];autosize=1;strokeColor=none;fillColor=none;fontSize=16;fontStyle=1" vertex="1" parent="1">
          <mxGeometry x="915" y="346.5" width="120" height="30" as="geometry" />
        </mxCell>
        <mxCell id="vQwIOBZvXGlRH5EmlvgB-40" value="CopyCodeCard" style="text;html=1;align=center;verticalAlign=middle;resizable=0;points=[];autosize=1;strokeColor=none;fillColor=none;fontSize=16;fontStyle=1" vertex="1" parent="1">
          <mxGeometry x="915" y="386.5" width="130" height="30" as="geometry" />
        </mxCell>
        <mxCell id="vQwIOBZvXGlRH5EmlvgB-41" value="PostArticleCard" style="text;html=1;align=center;verticalAlign=middle;resizable=0;points=[];autosize=1;strokeColor=none;fillColor=none;fontSize=16;fontStyle=1" vertex="1" parent="1">
          <mxGeometry x="915" y="426.5" width="130" height="30" as="geometry" />
        </mxCell>
        <mxCell id="vQwIOBZvXGlRH5EmlvgB-42" value="Header" style="text;html=1;align=center;verticalAlign=middle;resizable=0;points=[];autosize=1;strokeColor=none;fillColor=none;fontSize=16;fontStyle=1" vertex="1" parent="1">
          <mxGeometry x="910" y="466.5" width="80" height="30" as="geometry" />
        </mxCell>
        <mxCell id="vQwIOBZvXGlRH5EmlvgB-43" value="Footer" style="text;html=1;align=center;verticalAlign=middle;resizable=0;points=[];autosize=1;strokeColor=none;fillColor=none;fontSize=16;fontStyle=1" vertex="1" parent="1">
          <mxGeometry x="915" y="506.5" width="70" height="30" as="geometry" />
        </mxCell>
        <mxCell id="vQwIOBZvXGlRH5EmlvgB-44" value="ToTopButton" style="text;html=1;align=center;verticalAlign=middle;resizable=0;points=[];autosize=1;strokeColor=none;fillColor=none;fontSize=16;fontStyle=1" vertex="1" parent="1">
          <mxGeometry x="915" y="546.5" width="110" height="30" as="geometry" />
        </mxCell>
        <mxCell id="vQwIOBZvXGlRH5EmlvgB-45" value="TagCard" style="text;html=1;align=center;verticalAlign=middle;resizable=0;points=[];autosize=1;strokeColor=none;fillColor=none;fontSize=16;fontStyle=1" vertex="1" parent="1">
          <mxGeometry x="915" y="586.5" width="80" height="30" as="geometry" />
        </mxCell>
        <mxCell id="vQwIOBZvXGlRH5EmlvgB-46" value="TagCloud" style="text;html=1;align=center;verticalAlign=middle;resizable=0;points=[];autosize=1;strokeColor=none;fillColor=none;fontSize=16;fontStyle=1" vertex="1" parent="1">
          <mxGeometry x="915" y="621.5" width="90" height="30" as="geometry" />
        </mxCell>
        <mxCell id="vQwIOBZvXGlRH5EmlvgB-47" value="" style="shape=curlyBracket;whiteSpace=wrap;html=1;rounded=1;labelPosition=left;verticalLabelPosition=middle;align=right;verticalAlign=middle;strokeWidth=3;" vertex="1" parent="1">
          <mxGeometry x="870" y="210" width="20" height="440" as="geometry" />
        </mxCell>
      </root>
    </mxGraphModel>
  </diagram>
</mxfile>
